<?xml version="1.0" encoding="utf-8"?>
<!-- Generator: Adobe Illustrator 28.2.0, SVG Export Plug-In . SVG Version: 6.00 Build 0)  -->
<svg version="1.1" id="Layer_1" xmlns="http://www.w3.org/2000/svg" xmlns:xlink="http://www.w3.org/1999/xlink" x="0px" y="0px"
	 viewBox="0 0 64 64" style="enable-background:new 0 0 64 64;" xml:space="preserve">
<style type="text/css">
	.st0{fill:#00599C;}
	.st1{fill:#004482;}
	.st2{fill:#659AD2;}
	.st3{fill:#FFFFFF;}
</style>
<path class="st0" d="M59.7,48c0.4-0.8,0.7-1.6,0.7-2.4V18.4c0-0.8-0.3-1.7-0.7-2.4L32,32L59.7,48z"/>
<path class="st1" d="M34.5,63.4L58,49.8c0.7-0.4,1.3-1.1,1.7-1.8L32,32L4.3,48c0.4,0.8,1.1,1.4,1.7,1.8l23.5,13.6
	C30.9,64.2,33.1,64.2,34.5,63.4z"/>
<path class="st2" d="M59.7,16c-0.4-0.8-1.1-1.4-1.7-1.8L34.5,0.6c-1.4-0.8-3.6-0.8-4.9,0L6,14.2c-1.4,0.8-2.5,2.7-2.5,4.3v27.1
	c0,0.8,0.3,1.7,0.7,2.4L32,32L59.7,16z"/>
<g>
	<path class="st3" d="M32,51c-10.5,0-19-8.5-19-19s8.5-19,19-19c6.7,0,13,3.6,16.4,9.5l-8.2,4.7c-1.7-2.9-4.8-4.7-8.2-4.7
		c-5.2,0-9.5,4.3-9.5,9.5c0,5.2,4.3,9.5,9.5,9.5c3.4,0,6.5-1.8,8.2-4.7l8.2,4.7C45,47.3,38.7,51,32,51z"/>
</g>
<g>
	<polygon class="st3" points="51,30.9 48.9,30.9 48.9,28.8 46.7,28.8 46.7,30.9 44.6,30.9 44.6,33.1 46.7,33.1 46.7,35.2 48.9,35.2 
		48.9,33.1 51,33.1 	"/>
</g>
<g>
	<polygon class="st3" points="58.9,30.9 56.7,30.9 56.7,28.8 54.6,28.8 54.6,30.9 52.5,30.9 52.5,33.1 54.6,33.1 54.6,35.2 
		56.7,35.2 56.7,33.1 58.9,33.1 	"/>
</g>
</svg>
