<?xml version="1.0" encoding="utf-8"?>
<!-- Generator: Adobe Illustrator 28.2.0, SVG Export Plug-In . SVG Version: 6.00 Build 0)  -->
<svg version="1.1" id="Layer_1" xmlns="http://www.w3.org/2000/svg" xmlns:xlink="http://www.w3.org/1999/xlink" x="0px" y="0px"
	 viewBox="0 0 88 88" style="enable-background:new 0 0 88 88;" xml:space="preserve">
<style type="text/css">
	.st0{fill-rule:evenodd;clip-rule:evenodd;fill:#FFFFFF;}
</style>
<path class="st0" d="M44,0C7.8,0,0,7.8,0,44s7.8,44,44,44s44-7.8,44-44S80.2,0,44,0z M39.1,32.5c0.5,0.3,0.9,0.9,0.9,1.5
	c0,2.2,1.8,4,4,4s4-1.8,4-4c0-0.6,0.4-1.2,0.9-1.5c1.3-0.7,2.1-2,2.1-3.5c0-2.2-1.8-4-4-4c-0.4,0-0.8,0.1-1.1,0.2
	c-1.2,0.3-2.6,0.3-3.8,0C41.8,25.1,41.4,25,41,25c-2.2,0-4,1.8-4,4C37,30.5,37.9,31.9,39.1,32.5z M40.6,37.7
	c-0.2,0.1-0.3,0.3-0.4,0.5l-1,2.7c-0.2,0.4-0.2,0.9,0,1.3l1.6,4.9c0.1,0.3,0.3,0.6,0.5,0.7c0.5,0.3,1.3,0.7,2.6,0.7
	c1.3,0,2.2-0.4,2.6-0.7c0.3-0.2,0.4-0.4,0.5-0.7l1.6-4.9c0.1-0.4,0.1-0.9,0-1.3l-1-2.7c-0.1-0.2-0.2-0.4-0.4-0.5
	C46.5,38.5,45.3,39,44,39C42.7,39,41.5,38.5,40.6,37.7z M42,60l-1-11.3c0.6,0.4,1.6,0.8,3,0.8c1.4,0,2.4-0.4,3-0.8L46,60
	c0,0-0.5,0.5-2,0.5S42,60,42,60z M42.5,68L42,61.2c0,0,0,0,0.1,0c0.4,0.2,1.1,0.3,1.9,0.3c0.9,0,1.5-0.1,1.9-0.3c0,0,0,0,0.1,0
	L45.5,68c0,0-0.2,1-1.5,1S42.5,68,42.5,68z M18.5,40h19.9c-0.8,1.3-0.4,2.1-0.1,3l0,0v0l0,0v0l0,0c0.1,0.2,0.1,0.3,0.2,0.5
	l-18.7,5.4c-1.2,0.3-2.5-0.1-3.2-1.1l-1.2-1.6c-0.7-0.9-0.8-2.1-0.3-3.1l0.7-1.4C16.3,40.7,17.4,40,18.5,40z M16,38.5L38.7,39
	c0,0,0.4-0.9,0.5-1.5c0-0.2,0.1-0.4,0.1-0.6c0.1-0.2-0.1-0.5-0.3-0.6c-2.7-1.1-18.1-7.8-20.6-8.9c-1-0.4-2.1-0.3-3,0.4l-2.3,1.8
	C12.4,30.2,12,31.1,12,32c0,0.3,0,0.6,0.1,0.9l1.1,3.6C13.6,37.7,14.7,38.4,16,38.5z M69.5,40H49.6c0.8,1.3,0.4,2.1,0.1,3v0l0,0v0
	c-0.1,0.2-0.1,0.3-0.2,0.5l18.7,5.4c1.2,0.3,2.5-0.1,3.2-1.1l1.2-1.6c0.7-0.9,0.8-2.1,0.3-3.1l-0.7-1.4C71.7,40.7,70.6,40,69.5,40z
	 M72,38.5L49.2,39c0,0-0.4-0.9-0.5-1.5c0-0.2-0.1-0.4-0.1-0.6c-0.1-0.2,0.1-0.5,0.3-0.6c2.7-1.1,18.1-7.8,20.6-8.9
	c1-0.4,2.1-0.3,3,0.4l2.3,1.8c0.8,0.6,1.2,1.5,1.2,2.4c0,0.3,0,0.6-0.1,0.9l-1.1,3.6C74.4,37.7,73.3,38.4,72,38.5z"/>
</svg>
