<?xml version="1.0" encoding="utf-8"?>
<!-- Generator: Adobe Illustrator 28.2.0, SVG Export Plug-In . SVG Version: 6.00 Build 0)  -->
<svg version="1.1" id="Layer_1" xmlns="http://www.w3.org/2000/svg" xmlns:xlink="http://www.w3.org/1999/xlink" x="0px" y="0px"
	 viewBox="0 0 64 64" style="enable-background:new 0 0 64 64;" xml:space="preserve">
<style type="text/css">
	.st0{fill:#2DD0ED;}
</style>
<g>
	<path class="st0" d="M23.2,13.8c-8.5-1.5-15.1,0.1-17.8,4.6c-2,3.4-1.4,7.9,1.4,12.8c0.2,0.4,0.8,0.6,1.2,0.3c0,0,0,0,0,0
		c0.4-0.2,0.6-0.8,0.3-1.2c-2.5-4.3-3-8.2-1.4-11c2.2-3.8,8.2-5.2,16-3.8c0.5,0.1,0.9-0.2,1-0.7c0-0.1,0-0.2,0-0.4
		C23.9,14.1,23.6,13.8,23.2,13.8L23.2,13.8z M11.2,37c3.4,3.7,7.9,7.2,12.9,10.1c12.3,7,25.3,8.9,31.8,4.5c0.4-0.3,0.5-0.8,0.2-1.2
		c-0.3-0.4-0.8-0.5-1.2-0.2c-5.8,3.9-18.2,2.1-29.9-4.6c-4.9-2.8-9.2-6.2-12.5-9.8c-0.2-0.3-0.6-0.4-0.9-0.2
		c-0.5,0.2-0.7,0.6-0.5,1.1C11.1,36.8,11.1,36.9,11.2,37L11.2,37z"/>
	<path class="st0" d="M53.8,36c5.5-6.5,7.5-13,4.8-17.5c-2-3.4-6.1-5.1-11.6-5.2c-0.5,0-0.9,0.4-0.9,0.8c0,0.3,0.2,0.7,0.5,0.8
		c0.1,0,0.2,0.1,0.3,0.1c4.9,0.1,8.5,1.6,10.1,4.3c2.2,3.8,0.5,9.6-4.6,15.6c-0.3,0.4-0.3,0.9,0.1,1.2c0,0,0,0,0,0
		C53,36.4,53.5,36.3,53.8,36C53.8,36,53.8,36,53.8,36L53.8,36z M39.6,14c-5,1.1-10.3,3.1-15.4,6.1C11.5,27.3,3.2,38,4.4,45.7
		c0.1,0.5,0.5,0.8,1,0.7c0.5-0.1,0.8-0.5,0.8-1c0,0,0,0,0,0c-1-6.9,6.8-17,18.9-23.9c5-2.8,10.1-4.8,14.9-5.9c0.5-0.1,0.7-0.6,0.6-1
		C40.5,14.2,40.1,14,39.6,14L39.6,14z"/>
	<path class="st0" d="M19.1,51.1c2.9,8,7.6,12.9,13,12.9c3.9,0,7.5-2.6,10.3-7.2c0.1-0.2,0.2-0.4,0.1-0.7c-0.1-0.5-0.6-0.7-1-0.6
		c-0.1,0-0.2,0.1-0.3,0.2c-0.1,0.1-0.2,0.2-0.2,0.3c-2.5,4.1-5.6,6.4-8.8,6.4c-4.4,0-8.6-4.4-11.3-11.8c-0.1-0.2-0.2-0.4-0.4-0.5
		c-0.1,0-0.2-0.1-0.3-0.1c-0.5,0-0.9,0.3-0.9,0.8c0,0,0,0,0,0C19,50.9,19.1,51,19.1,51.1L19.1,51.1z M45.5,49.5
		c1.5-4.7,2.3-10.2,2.3-15.9c0-14.2-5-26.5-12.2-29.6c-0.4-0.2-0.9,0-1.1,0.5c-0.2,0.4,0,0.9,0.4,1.1c6.4,2.8,11.2,14.4,11.2,28
		c0,5.5-0.8,10.8-2.2,15.4c-0.1,0.2-0.1,0.5,0,0.7c0.2,0.4,0.7,0.6,1.2,0.4C45.3,49.9,45.5,49.7,45.5,49.5z M61.9,48.7
		c0-2.3-1.8-4.1-4.1-4.1c-2.3,0-4.2,1.8-4.2,4.1c0,0,0,0,0,0.1c0,2.3,1.9,4.1,4.2,4.1C60,52.7,61.9,50.9,61.9,48.7z M60.1,48.7
		c0,1.3-1.1,2.4-2.4,2.4c-1.3,0-2.4-1.1-2.4-2.4c0-1.3,1.1-2.4,2.4-2.4C59.1,46.3,60.1,47.4,60.1,48.7z M6.3,52.8
		c2.3,0,4.1-1.8,4.1-4.1c0,0,0,0,0,0c0-2.3-1.9-4.1-4.1-4.1c0,0,0,0,0,0c-2.3,0-4.1,1.8-4.1,4.1c0,0,0,0,0,0
		C2.2,50.9,4,52.8,6.3,52.8C6.3,52.8,6.3,52.8,6.3,52.8z M6.3,51.1c-1.3,0-2.4-1.1-2.4-2.4c0-1.3,1.1-2.4,2.4-2.4c0,0,0,0,0,0
		c1.3,0,2.4,1.1,2.4,2.4C8.8,50,7.7,51.1,6.3,51.1z"/>
	<path class="st0" d="M32.1,8.2c1.7,0,3.2-1,3.8-2.5c0.9-2.1-0.1-4.5-2.2-5.4c-0.5-0.2-1-0.3-1.6-0.3c-2.3,0-4.1,1.8-4.1,4.1
		c0,1.1,0.4,2.1,1.2,2.9C29.9,7.8,31,8.2,32.1,8.2L32.1,8.2z M32.1,6.5c-1,0-1.9-0.6-2.2-1.5c-0.2-0.6-0.2-1.2,0-1.8
		c0.2-0.6,0.7-1.1,1.3-1.3c1.2-0.5,2.6,0.1,3.2,1.3S34.2,5.8,33,6.3C32.7,6.4,32.4,6.5,32.1,6.5L32.1,6.5z M32.7,36.5
		c-0.8,0.2-1.6,0-2.3-0.4c-1.4-0.9-1.8-2.7-0.9-4.1c0.4-0.7,1.1-1.1,1.9-1.3c1.6-0.3,3.2,0.7,3.5,2.3C35.3,34.6,34.3,36.2,32.7,36.5
		L32.7,36.5z"/>
</g>
</svg>
