<?xml version="1.0" encoding="utf-8"?>
<!-- Generator: Adobe Illustrator 28.2.0, SVG Export Plug-In . SVG Version: 6.00 Build 0)  -->
<svg version="1.1" id="Layer_1" xmlns="http://www.w3.org/2000/svg" xmlns:xlink="http://www.w3.org/1999/xlink" x="0px" y="0px"
	 viewBox="0 0 800 800" style="enable-background:new 0 0 800 800;" xml:space="preserve">
<style type="text/css">
	.st0{fill-rule:evenodd;clip-rule:evenodd;fill:#FFFFFF;}
	.st1{fill-rule:evenodd;clip-rule:evenodd;fill:#A6A385;}
	.st2{fill-rule:evenodd;clip-rule:evenodd;fill:#499D4A;}
	.st3{fill-rule:evenodd;clip-rule:evenodd;fill:#58AA50;}
</style>
<g>
	<path class="st0" d="M744.9,380.4c-0.7,0.1-1.4,1.7-1.4,2.6c-0.1,5.8-0.3,21.1-0.3,31.4c0,0.3,0.4,0.9,0.9,0.9
		c2.2,0.1,7.4,0.3,11.8,0.3c6.2,0,9.8-0.9,11.8-1.7c5.2-2.6,7.6-8.2,7.6-14.4c0-14-9.8-19.3-24.4-19.3
		C749.9,380,747,380,744.9,380.4L744.9,380.4z M782.1,444.9c0-14.3-10.5-22.2-29.6-22.2c-0.9,0-6.9-0.1-8.4,0.1
		c-0.4,0.1-1,0.4-1,0.9c0,10.2-0.1,26.5,0.3,32.9c0.3,2.7,2.3,6.6,4.8,7.8c2.6,1.4,8.5,1.7,12.5,1.7
		C772.1,466.1,782.1,459.7,782.1,444.9L782.1,444.9z M715.5,372.5c1.4,0,5.8,0.4,16.9,0.4c10.5,0,18.9-0.3,29.1-0.3
		c12.5,0,29.8,4.5,29.8,23.2c0,9.2-6.5,16.6-15,20.2c-0.4,0.1-0.4,0.4,0,0.6c12.1,3,22.8,10.5,22.8,24.7c0,13.8-8.7,22.6-21.2,28.1
		c-7.6,3.3-17.2,4.5-26.8,4.5c-7.4,0-27.1-0.9-38.1-0.6c-1.2-0.4,1-5.6,2-6.5c2.6-0.1,4.6-0.3,7.4-1.2c3.9-1,4.3-2.2,4.9-8.1
		c0.3-5,0.3-22.9,0.3-35.6c0-17.4,0.1-29.3,0-35c-0.1-4.5-1.7-5.9-4.9-6.8c-2.5-0.4-6.5-1-9.8-1.4
		C712.1,378,714.6,373.1,715.5,372.5L715.5,372.5z M632.3,462.2c3.5,2.7,10.2,3.9,16.3,3.9c7.8,0,15.6-1.4,23.1-8.2
		c7.6-6.9,13-17.6,13-34.6c0-16.3-6.2-29.6-18.9-37.3c-7.2-4.5-16.4-6.3-27.1-6.3c-3.2,0-6.2,0.1-8.1,1c-0.4,0.3-1.4,1.6-1.4,2.3
		c-0.3,2.9-0.3,25.1-0.3,38.1c0,13.4,0,32.2,0.3,34.3C629.1,457.4,630.1,460.7,632.3,462.2L632.3,462.2z M599.5,372.5
		c2.7,0,13.3,0.4,18.3,0.4c9.1,0,15.6-0.4,32.7-0.4c14.4,0,26.5,3.9,35.2,11.2c10.5,9.1,16,21.6,16,36.9c0,21.8-10,34.3-19.9,41.5
		c-9.9,7.4-22.9,11.7-41.4,11.7c-9.8,0-26.7-0.3-40.7-0.4h-0.1c-0.7-1.3,1.2-6.3,2.3-6.5c3.8-0.4,4.8-0.6,6.6-1.3
		c3-1.2,3.6-2.7,4-8.1c0.4-9.9,0.3-21.9,0.3-35.5c0-9.7,0.1-28.6-0.1-34.6c-0.4-5-2.6-6.3-6.9-7.2c-2.2-0.4-5-1-9.1-1.4
		C596.2,377.8,598.8,373.3,599.5,372.5L599.5,372.5z"/>
	<path class="st0" d="M425.1,467.8c-3.6-0.4-6.2-1-9.4-2.5c-0.4-0.3-1.2-1.7-1.2-2.3c-0.3-5-0.3-19.5-0.3-29.1
		c0-7.8-1.3-14.6-4.6-19.3c-3.9-5.5-9.5-8.7-16.7-8.7c-6.3,0-14.9,4.3-21.9,10.4c-0.1,0.1-1.3,1.2-1.2-0.4c0-1.6,0.3-4.8,0.4-6.9
		c0.1-2-1-3-1-3c-4.6,2.3-17.6,5.3-22.4,5.8c-3.5,0.7-4.3,4-0.7,5.2h0.1c3.9,1.2,6.5,2.5,8.5,3.8c1.4,1.2,1.3,2.7,1.3,4
		c0.1,10.8,0.1,27.4-0.3,36.5c-0.1,3.6-1.2,4.9-3.8,5.5l0.3-0.1c-2,0.4-3.6,0.9-6.1,1.2c-0.9,0.9-0.9,5.5,0,6.5
		c1.6,0,9.9-0.4,16.9-0.4c9.5,0,14.4,0.4,16.9,0.4c1-1.2,1.3-5.5,0.7-6.5c-2.7-0.1-4.8-0.4-6.6-1c-2.6-0.6-3.3-1.9-3.5-4.9
		c-0.3-7.6-0.3-23.8-0.3-34.8c0-3,0.9-4.5,1.7-5.3c3.3-2.9,8.7-4.9,13.4-4.9c4.6,0,7.6,1.4,9.9,3.3c3.2,2.6,4.2,6.3,4.6,9.1
		c0.7,6.2,0.4,18.5,0.4,29.1c0,5.8-0.4,7.2-2.6,7.9c-1,0.4-3.6,1-6.6,1.3c-1,1-0.7,5.5,0,6.5c4.2,0,9.1-0.4,16.3-0.4
		c8.9,0,14.7,0.4,17,0.4C425.3,473.1,425.6,468.9,425.1,467.8L425.1,467.8z M465,412.7c-7.6,0-12.4,5.9-12.4,15.1
		c0,9.4,4.2,20.2,16,20.2c2,0,5.8-0.9,7.5-2.9c2.7-2.6,4.6-7.8,4.6-13.3C480.7,419.9,474.8,412.7,465,412.7L465,412.7z M464,476.4
		c-2.9,0-4.9,0.9-6.2,1.6c-6.1,3.9-8.8,7.6-8.8,12.1c0,4.2,1.6,7.5,5,10.4c4.2,3.6,9.9,5.3,17.3,5.3c14.7,0,21.2-7.9,21.2-15.7
		c0-5.5-2.7-9.1-8.4-11.1C480.1,477.3,472.8,476.4,464,476.4L464,476.4z M465,513.9c-8.8,0-15.1-1.9-20.6-6.1
		c-5.3-4-7.6-10.1-7.6-14.3c0-1.2,0.3-4.3,2.9-7.2c1.6-1.7,5-5,13.3-10.7c0.3-0.1,0.4-0.3,0.4-0.6c0-0.3-0.3-0.6-0.6-0.7
		c-6.8-2.6-8.8-6.8-9.4-9.1V465c-0.1-0.9-0.4-1.7,0.9-2.6c1-0.7,2.5-1.6,4-2.6c2.5-1.4,5-3,6.6-4.3c0.3-0.3,0.3-0.6,0.3-0.9
		s-0.3-0.6-0.6-0.7c-10.1-3.3-15.1-10.8-15.1-22.1c0-7.4,3.3-14,9.2-18.2c4-3.2,14.1-7.1,20.8-7.1h0.4c6.8,0.1,10.5,1.6,15.9,3.5
		c2.9,1,5.6,1.4,9.4,1.4c5.6,0,8.1-1.7,10.1-3.7c0.1,0.3,0.4,1,0.6,2.9c0.1,1.9-0.4,4.6-1.9,6.6c-1.2,1.6-3.7,2.7-6.3,2.7h-0.7
		c-2.6-0.3-3.8-0.6-3.8-0.6l-0.6,0.3c-0.1,0.3,0,0.6,0.1,1l0.1,0.3c0.3,1.3,0.9,5.2,0.9,6.2c0,11.8-4.8,17-9.8,20.9
		c-4.9,3.6-10.5,5.9-16.9,6.5c-0.1,0-0.7,0-2,0.1c-0.7,0-1.7,0.1-1.9,0.1H463c-1.2,0.3-4,1.7-4,4.2c0,2.2,1.3,4.8,7.5,5.2
		c1.3,0.1,2.6,0.1,4,0.3c8.2,0.6,18.5,1.3,23.2,2.9c6.6,2.4,10.8,8.4,10.8,15.4c0,10.7-7.6,20.6-20.3,26.8
		C478,512.5,471.8,513.9,465,513.9L465,513.9z M547.2,413.4c-3,0-5.8,0.7-7.8,2.2c-5.6,3.5-8.5,10.4-8.5,20.5
		c0,18.9,9.5,32.2,23.1,32.2c4,0,7.2-1.2,9.9-3.5c4.2-3.5,6.3-10.4,6.3-20C570.3,426,560.9,413.4,547.2,413.4L547.2,413.4z
		 M549.8,475.1c-24.5,0-33.3-18-33.3-34.9c0-11.8,4.8-20.9,14.3-27.4c6.8-4.2,14.9-6.5,22.1-6.5c18.7,0,31.9,13.4,31.9,32.7
		c0,13.1-5.2,23.5-15.1,29.8C564.8,472.1,556.6,475.1,549.8,475.1L549.8,475.1L549.8,475.1z M292.8,413.4c-3,0-5.8,0.7-7.8,2.2
		c-5.6,3.5-8.5,10.4-8.5,20.5c0,18.9,9.5,32.2,23.1,32.2c4,0,7.2-1.2,9.9-3.5c4.2-3.5,6.3-10.4,6.3-20
		C315.9,426,306.7,413.4,292.8,413.4L292.8,413.4z M295.4,475.1c-24.5,0-33.3-18-33.3-34.9c0-11.8,4.8-20.9,14.3-27.4
		c6.8-4.2,14.9-6.5,22.1-6.5c18.7,0,31.9,13.4,31.9,32.7c0,13.1-5.2,23.5-15.1,29.8C310.6,472.1,302.3,475.1,295.4,475.1
		L295.4,475.1z M130.6,473.7c-0.3-0.4-0.6-1.7-0.4-3.3c0-1.2,0.3-1.9,0.4-2.2c3-0.4,4.6-0.9,6.3-1.3c2.9-0.7,4-2.3,4.2-5.9
		c0.4-8.7,0.4-25.1,0.3-36.5v-0.3c0-1.3,0-2.9-1.6-4c-2.3-1.4-5-2.7-8.7-3.8c-1.3-0.4-2.2-1.2-2-2c0-0.9,0.9-1.9,2.7-2.2
		c4.8-0.4,17.2-3.5,22.1-5.6c0.3,0.3,0.7,1.2,0.7,2.3l-0.1,1.6c-0.1,1.6-0.3,3.5-0.3,5.3c0,0.6,0.6,1,1.2,1c0.3,0,0.6-0.1,0.9-0.3
		c9.2-7.2,17.6-9.8,21.9-9.8c7.1,0,12.5,3.3,16.7,10.2c0.3,0.4,0.6,0.6,1,0.6c0.3,0,0.7-0.1,0.9-0.4c8.5-6.5,17-10.4,22.6-10.4
		c13.4,0,21.3,9.9,21.3,26.8c0,4.8,0,11-0.1,16.6c0,5-0.1,9.7-0.1,13c0,0.7,1,3,2.6,3.5c2,1,4.8,1.4,8.4,2h0.1
		c0.3,1-0.3,4.8-0.9,5.5c-0.9,0-2.2,0-3.6-0.1c-3.7-0.2-7.3-0.3-11-0.3c-8.9,0-13.6,0.1-18,0.4c-0.3-1.2-0.4-4.6,0-5.5
		c2.6-0.4,3.9-0.9,5.5-1.3c2.9-0.9,3.6-2.2,3.7-5.9c0-2.7,0.6-26.1-0.3-31.7c-0.9-5.8-5.2-12.5-14.7-12.5c-3.6,0-9.2,1.4-14.7,5.6
		c-0.3,0.3-0.6,1-0.6,1.4v0.1c0.6,3,0.6,6.5,0.6,11.8v9.4c0,6.5-0.1,12.5,0,17.2c0,3.2,1.9,3.9,3.5,4.5c0.9,0.1,1.4,0.3,2.2,0.4
		c1.3,0.3,2.6,0.6,4.6,1c0.3,0.6,0.3,2.5-0.1,4c-0.1,0.9-0.4,1.3-0.6,1.4c-4.9-0.1-9.9-0.3-17.3-0.3c-2.2,0-5.9,0.1-9.1,0.1
		c-2.6,0-5,0.1-6.5,0.1c-0.1-0.3-0.4-1.3-0.4-2.9c0-1.3,0.3-2.3,0.6-2.6c0.7-0.1,1.3-0.3,2-0.3c1.7-0.3,3.2-0.6,4.6-0.9
		c2.5-0.7,3.3-2,3.5-5.2c0.4-7.2,0.9-27.8-0.1-33c-1.7-8.4-6.5-12.5-14.1-12.5c-4.5,0-10.1,2.2-14.7,5.6c-0.7,0.6-1.3,2-1.3,3.3v8.5
		c0,10.4,0,23.4,0.1,29c0.1,1.7,0.7,3.7,4,4.5c0.7,0.1,1.9,0.4,3.3,0.6l2.6,0.4c0.3,0.9,0.1,4.3-0.4,5.5c-1.4,0-3.2-0.1-5.2-0.1
		c-3-0.1-6.9-0.3-11.2-0.3c-5,0-8.7,0.1-11.5,0.3C133.9,473.7,132.3,473.7,130.6,473.7L130.6,473.7z"/>
	<path class="st0" d="M54.8,508.3l-5.9-2c0,0,0.7-30.1-10.1-32.3c-7.2-8.4,1.2-354.7,27.1-1.2c0,0-8.9,4.5-10.5,12.1
		C53.6,492.4,54.8,508.3,54.8,508.3z"/>
	<path class="st1" d="M54.8,508.3l-5.9-2c0,0,0.7-30.1-10.1-32.3c-7.2-8.4,1.2-354.7,27.1-1.2c0,0-8.9,4.5-10.5,12.1
		C53.6,492.4,54.8,508.3,54.8,508.3z"/>
	<path class="st0" d="M57.9,479.2c0,0,51.8-34,39.7-104.8c-11.7-51.5-39.2-68.3-42.2-74.8c-3.3-4.6-6.5-12.7-6.5-12.7L51,430
		C51,430.2,46.6,473.8,57.9,479.2"/>
	<path class="st2" d="M57.9,479.2c0,0,51.8-34,39.7-104.8c-11.7-51.5-39.2-68.3-42.2-74.8c-3.3-4.6-6.5-12.7-6.5-12.7L51,430
		C51,430.2,46.6,473.8,57.9,479.2"/>
	<path class="st0" d="M45.8,481.1c0,0-48.6-33.2-45.7-91.6c2.7-58.4,37.1-87.1,43.7-92.3c4.3-4.6,4.5-6.3,4.8-11
		c3,6.5,2.5,97,2.9,107.7C52.8,435.1,49.1,473.3,45.8,481.1z"/>
	<path class="st3" d="M45.8,481.1c0,0-48.6-33.2-45.7-91.6c2.7-58.4,37.1-87.1,43.7-92.3c4.3-4.6,4.5-6.3,4.8-11
		c3,6.5,2.5,97,2.9,107.7C52.8,435.1,49.1,473.3,45.8,481.1z"/>
</g>
</svg>
