<?xml version="1.0" encoding="UTF-8"?><svg id="Layer_1" xmlns="http://www.w3.org/2000/svg" xmlns:xlink="http://www.w3.org/1999/xlink" viewBox="0 0 64 40.4"><defs><style>.cls-1{fill:url(#linear-gradient);}.cls-1,.cls-2,.cls-3,.cls-4,.cls-5,.cls-6,.cls-7{stroke-width:0px;}.cls-8{clip-path:url(#clippath-2);}.cls-2{fill:none;}.cls-9{clip-path:url(#clippath-1);}.cls-3{fill:#ebebec;}.cls-3,.cls-6{fill-rule:evenodd;}.cls-4{fill:url(#linear-gradient-2);}.cls-5{fill:url(#linear-gradient-3);}.cls-10{clip-path:url(#clippath);}.cls-6,.cls-7{fill:#68a063;}</style><clipPath id="clippath"><path class="cls-2" d="M23.25,9.33l-6.1,3.63c-.23.14-.37.39-.37.66v7.26c0,.27.14.52.37.66l6.1,3.63c.23.14.51.14.74,0l6.09-3.63c.23-.14.37-.39.37-.66v-7.26c0-.27-.14-.52-.37-.66l-6.09-3.63c-.11-.07-.24-.1-.37-.1s-.25.03-.37.1"/></clipPath><linearGradient id="linear-gradient" x1="-267.59" y1="220.94" x2="-267.41" y2="220.94" gradientTransform="translate(-36427.67 16499.6) rotate(116.11) scale(115.31 -115.31)" gradientUnits="userSpaceOnUse"><stop offset=".3" stop-color="#3f873f"/><stop offset=".5" stop-color="#55934f"/><stop offset=".8" stop-color="#5bad46"/></linearGradient><clipPath id="clippath-1"><path class="cls-2" d="M16.94,21.33c.06.08.13.15.22.2l5.23,3.11.87.52c.13.08.28.11.42.1.05,0,.1-.01.14-.03l6.43-12.13c-.05-.06-.11-.1-.17-.14l-3.99-2.38-2.11-1.25c-.06-.04-.12-.06-.19-.08l-6.85,12.08Z"/></clipPath><linearGradient id="linear-gradient-2" x1="-267.8" y1="219.76" x2="-267.69" y2="219.76" gradientTransform="translate(61276.02 3140.28) rotate(-36.46) scale(177.06 -177.06)" gradientUnits="userSpaceOnUse"><stop offset=".57" stop-color="#3f873f"/><stop offset=".72" stop-color="#609857"/><stop offset="1" stop-color="#76ac64"/></linearGradient><clipPath id="clippath-2"><path class="cls-2" d="M23.55,9.23c-.1.01-.2.04-.29.1l-6.08,3.62,6.55,12.3c.09-.01.18-.04.26-.09l6.1-3.63c.19-.11.32-.3.36-.52l-6.68-11.76s-.1-.02-.15-.02c-.02,0-.04,0-.06,0"/></clipPath><linearGradient id="linear-gradient-3" x1="-266.98" y1="219.87" x2="-266.88" y2="219.87" gradientTransform="translate(34695.02 28575.66) scale(129.89 -129.89)" gradientUnits="userSpaceOnUse"><stop offset=".16" stop-color="#6dbe47"/><stop offset=".38" stop-color="#78b461"/><stop offset=".47" stop-color="#75ad65"/><stop offset=".7" stop-color="#669e5a"/><stop offset=".9" stop-color="#3f873f"/></linearGradient></defs><path class="cls-7" d="M31.63,40.4c-.21,0-.42-.06-.61-.17l-1.93-1.18c-.29-.17-.15-.22-.05-.26.38-.14.46-.17.87-.41.04-.03.1-.02.14.01l1.48.91c.05.03.13.03.18,0l5.78-3.44c.05-.03.09-.1.09-.16v-6.87c0-.07-.03-.13-.09-.16l-5.78-3.44c-.05-.03-.12-.03-.18,0l-5.78,3.44c-.06.03-.09.1-.09.16v6.87c0,.07.03.13.09.16l1.58.94c.86.44,1.38-.08,1.38-.6v-6.78c0-.1.07-.17.17-.17h.73c.09,0,.17.07.17.17v6.79c0,1.18-.62,1.86-1.71,1.86-.33,0-.6,0-1.33-.37l-1.52-.9c-.37-.22-.61-.64-.61-1.09v-6.87c0-.45.23-.86.61-1.09l5.79-3.44c.37-.21.85-.21,1.22,0l5.78,3.44c.37.22.61.64.61,1.09v6.87c0,.45-.23.86-.61,1.09l-5.78,3.44c-.19.11-.39.17-.61.17"/><path class="cls-7" d="M33.42,35.66c-2.53,0-3.06-1.2-3.06-2.2,0-.1.07-.17.17-.17h.75c.08,0,.15.06.16.15.11.78.45,1.18,1.98,1.18,1.22,0,1.74-.28,1.74-.95,0-.38-.15-.67-2.04-.86-1.58-.16-2.56-.52-2.56-1.82,0-1.2.98-1.92,2.63-1.92,1.85,0,2.77.66,2.88,2.08,0,.05-.01.1-.04.13-.03.03-.08.06-.12.06h-.75c-.08,0-.15-.06-.16-.13-.18-.82-.62-1.09-1.81-1.09-1.33,0-1.48.48-1.48.83,0,.43.18.56,1.98.81,1.78.24,2.62.59,2.62,1.87s-1.05,2.04-2.88,2.04M40.45,28.38h.19c.16,0,.19-.11.19-.18,0-.18-.12-.18-.18-.18h-.2v.36ZM40.21,27.81h.43c.15,0,.44,0,.44.34,0,.24-.15.29-.24.32.17.01.18.13.21.29.01.1.03.28.07.34h-.26c0-.06-.05-.39-.05-.41-.02-.07-.04-.11-.13-.11h-.22v.52h-.24v-1.29ZM39.7,28.45c0,.53.42.97.93.97s.94-.44.94-.97-.42-.96-.94-.96-.93.42-.93.96M41.74,28.46c0,.63-.5,1.15-1.11,1.15s-1.11-.51-1.11-1.15.52-1.15,1.11-1.15,1.11.5,1.11,1.15"/><path class="cls-3" d="M13.73,13.5c0-.27-.14-.53-.37-.66l-6.13-3.63c-.1-.06-.22-.1-.34-.1h-.06c-.12,0-.23.04-.34.1L.37,12.84c-.23.14-.37.39-.37.66v9.79c.01.14.08.26.2.33.11.07.25.07.37,0l3.64-2.15c.23-.14.37-.39.37-.66v-4.57c0-.27.14-.52.37-.66l1.55-.92c.12-.07.24-.1.37-.1s.26.03.37.1l1.55.92c.23.14.37.39.37.66v4.57c0,.27.14.52.37.66l3.64,2.15c.11.07.26.07.37,0,.11-.07.18-.19.18-.33v-9.79ZM42.65,18.6c0,.07-.04.13-.09.16l-2.1,1.25c-.06.03-.13.03-.18,0l-2.11-1.25c-.06-.03-.09-.1-.09-.16v-2.5c0-.07.03-.13.09-.17l2.1-1.25c.06-.03.13-.03.19,0l2.11,1.25c.06.03.09.1.09.17v2.5ZM43.22.05c-.11-.07-.25-.06-.37,0-.11.07-.18.19-.18.33v9.69c0,.1-.05.18-.13.23-.08.05-.18.05-.26,0l-1.54-.91c-.23-.14-.51-.14-.74,0l-6.13,3.65c-.23.14-.37.39-.37.66v7.29c0,.27.14.52.37.66l6.13,3.65c.23.14.51.14.74,0l6.13-3.65c.23-.14.37-.39.37-.66V2.81c0-.28-.15-.53-.38-.67L43.22.05ZM63.63,16.03c.23-.14.37-.39.37-.66v-1.77c0-.27-.14-.52-.37-.66l-6.09-3.64c-.23-.14-.51-.14-.74,0l-6.13,3.65c-.23.14-.37.39-.37.66v7.29c0,.27.14.53.37.66l6.09,3.58c.22.13.5.13.73,0l3.68-2.11c.12-.07.19-.19.19-.33s-.07-.27-.19-.33l-6.17-3.65c-.12-.07-.19-.19-.19-.33v-2.29c0-.14.07-.26.19-.33l1.92-1.14c.11-.07.25-.07.37,0l1.92,1.14c.11.07.19.19.19.33v1.8c0,.14.07.26.19.33.11.07.26.07.37,0l3.68-2.2Z"/><path class="cls-6" d="M57.08,15.69s.1-.03.14,0l1.18.7s.07.07.07.13v1.4c0,.05-.03.1-.07.13l-1.18.7s-.1.03-.14,0l-1.18-.7s-.07-.07-.07-.13v-1.4c0-.05.03-.1.07-.13l1.18-.7Z"/><g class="cls-10"><path class="cls-1" d="M36.61,12.34L19.44,3.67l-8.81,18.51,17.17,8.68,8.81-18.51Z"/></g><g class="cls-9"><path class="cls-4" d="M9.51,14.91l12.13,16.92,16.04-12.21L25.55,2.7,9.51,14.91Z"/></g><g class="cls-8"><path class="cls-5" d="M17.17,9.23v16.02h13.26V9.23h-13.26Z"/></g></svg>