<?xml version="1.0" encoding="utf-8"?>
<!-- Generator: Adobe Illustrator 28.2.0, SVG Export Plug-In . SVG Version: 6.00 Build 0)  -->
<svg version="1.1" id="Layer_1" xmlns="http://www.w3.org/2000/svg" xmlns:xlink="http://www.w3.org/1999/xlink" x="0px" y="0px"
	 viewBox="0 0 32 32" style="enable-background:new 0 0 32 32;" xml:space="preserve">
<style type="text/css">
	.st0{fill-rule:evenodd;clip-rule:evenodd;fill:#FFFFFF;}
</style>
<path class="st0" d="M0,16C0,7.2,7.2,0,16,0s16,7.2,16,16s-7.2,16-16,16S0,24.8,0,16z M18.5,23.1l1.6,1.8c3.9-1.8,5.1-5.3,5.4-6.6
	c-1.4,1.5-3,3-4.1,1.9c0,0-0.1-5.5-0.1-7.7c0-3,2.9-5.3,2.9-5.3c-1.6,0.3-3.5,0.8-5.5,2.8c-0.2,0.2-0.4,0.4-0.5,0.6
	c-0.9-0.7-2-0.5-2-0.5c0.6,0.3,1.2,1.3,1.2,2.1v7.9c0,0-1.3,1.2-2.3,1.2c-0.5,0-0.9-0.2-1.2-0.6c-0.1-0.1-0.1-0.2-0.2-0.3v-9.7
	c-0.3,0.2-1.3,0.5-1.3-1.2c0-1,0.8-2.3,2.1-3.1c-1.8,0.3-3.6,1.1-5,2.3c-2.2,1.9-3.4,4.6-3.4,7.5c0,0,1-3.1,2.2-3.3
	c0.6-0.2,1.3,0.2,1.4,0.8c0,0.1,0,0.2,0,0.3v7.2C9.9,21.8,9.4,22,9,22c-0.3,0-0.6-0.1-0.9-0.2c1.8,2.5,4.7,3.9,7.7,4L18.5,23.1z"/>
</svg>
