<?xml version="1.0" encoding="utf-8"?>
<!-- Generator: Adobe Illustrator 28.2.0, SVG Export Plug-In . SVG Version: 6.00 Build 0)  -->
<svg version="1.1" id="Layer_1" xmlns="http://www.w3.org/2000/svg" xmlns:xlink="http://www.w3.org/1999/xlink" x="0px" y="0px"
	 viewBox="0 0 64 64" style="enable-background:new 0 0 64 64;" xml:space="preserve">
<style type="text/css">
	.st0{fill:url(#SVGID_1_);}
	.st1{fill:url(#SVGID_00000175296279836840939630000004521520235256955312_);}
	.st2{fill:url(#SVGID_00000005245140652059454790000002397715461791327639_);}
	.st3{fill:url(#SVGID_00000091714105866391845350000016032996075093272251_);}
</style>
<linearGradient id="SVGID_1_" gradientUnits="userSpaceOnUse" x1="47.7869" y1="61.6224" x2="47.7869" y2="14.556" gradientTransform="matrix(1 0 0 -1 0 64)">
	<stop  offset="0" style="stop-color:#9F87FF"/>
	<stop  offset="1" style="stop-color:#8566FF"/>
</linearGradient>
<path class="st0" d="M62.6,17.2c0,6-2.4,11.8-6.7,16.1v0L40.6,48.4c-0.5,0.5-1.4,0.5-1.9,0c-3.7-4.2-5.8-9.6-5.7-15.2
	c0-6,2.4-11.8,6.7-16.1l0,0L53.6,3.3C54.9,2.1,56.9,2,58,3.5C60.9,7.4,62.6,12.2,62.6,17.2L62.6,17.2z"/>
<linearGradient id="SVGID_00000084522287401649007520000006825715035630297269_" gradientUnits="userSpaceOnUse" x1="16.2131" y1="61.6224" x2="16.2131" y2="14.5561" gradientTransform="matrix(1 0 0 -1 0 64)">
	<stop  offset="0" style="stop-color:#9F87FF"/>
	<stop  offset="1" style="stop-color:#8566FF"/>
</linearGradient>
<path style="fill:url(#SVGID_00000084522287401649007520000006825715035630297269_);" d="M8.2,33.4c-4.3-4.3-6.7-10.1-6.7-16.1
	c0-5,1.6-9.8,4.6-13.7c1.1-1.4,3.1-1.4,4.4-0.2l13.9,13.8l0,0c4.3,4.3,6.7,10.1,6.7,16.1c0,5.6-2,11-5.7,15.2
	c-0.5,0.6-1.3,0.6-1.9,0L8.2,33.4L8.2,33.4L8.2,33.4z"/>
<linearGradient id="SVGID_00000092434334871630785440000003256621346905514920_" gradientUnits="userSpaceOnUse" x1="51.6158" y1="29.0467" x2="51.6158" y2="2.4246" gradientTransform="matrix(1 0 0 -1 0 64)">
	<stop  offset="0" style="stop-color:#DE99F6"/>
	<stop  offset="1" style="stop-color:#D669FC"/>
</linearGradient>
<path style="fill:url(#SVGID_00000092434334871630785440000003256621346905514920_);" d="M55.3,60.5c-1.1,1.4-3.2,1.4-4.4,0.1
	L42.3,52c-0.5-0.5-0.5-1.4,0-1.9l14.3-14.2c0.5-0.5,1.4-0.5,1.9,0.1c2.5,3.1,3.4,7.4,2.7,12.1C60.4,52.3,58.4,56.7,55.3,60.5
	L55.3,60.5z"/>
<linearGradient id="SVGID_00000035508658047726218610000014334848106182883495_" gradientUnits="userSpaceOnUse" x1="12.3844" y1="29.0467" x2="12.3844" y2="2.4246" gradientTransform="matrix(1 0 0 -1 0 64)">
	<stop  offset="0" style="stop-color:#DE99F6"/>
	<stop  offset="1" style="stop-color:#D669FC"/>
</linearGradient>
<path style="fill:url(#SVGID_00000035508658047726218610000014334848106182883495_);" d="M13.1,60.7c-1.2,1.3-3.3,1.3-4.4-0.1
	c-3.1-3.8-5.2-8.2-5.8-12.5c-0.7-4.7,0.2-9,2.7-12.1c0.5-0.6,1.3-0.6,1.9-0.1l14.3,14.2c0.5,0.5,0.5,1.4,0,1.9L13.1,60.7z"/>
</svg>
