<?xml version="1.0" encoding="utf-8"?>
<!-- Generator: Adobe Illustrator 28.3.0, SVG Export Plug-In . SVG Version: 6.00 Build 0)  -->
<svg version="1.1" id="Layer_1" xmlns="http://www.w3.org/2000/svg" xmlns:xlink="http://www.w3.org/1999/xlink" x="0px" y="0px"
	 viewBox="0 0 119 64.3" style="enable-background:new 0 0 119 64.3;" xml:space="preserve">
<style type="text/css">
	.st0{fill:#3A96ED;}
	.st1{fill:url(#SVGID_1_);}
</style>
<g>
	<path class="st0" d="M111.7,41.9c-4.1,14-14.2,20.5-28.5,20.5C67.8,62.3,60,53.1,60,38.5c0-15.4,8.8-36.5,32.5-36.5
		c14.9,0,23,8,22.9,20.4H99.1c0-4.3-1.3-8.7-7.9-8.7c-9.8,0-14.3,15.6-14.3,25.6c0,6.4,1.9,11.3,8,11.3c5.8,0,8.5-3.8,10.4-8.7
		C95.3,41.9,111.7,41.9,111.7,41.9z"/>
	
		<linearGradient id="SVGID_1_" gradientUnits="userSpaceOnUse" x1="2.54" y1="33.87" x2="75.36" y2="33.87" gradientTransform="matrix(1 0 0 -1 0 66)">
		<stop  offset="9.980000e-02" style="stop-color:#10D7F4"/>
		<stop  offset="0.3856" style="stop-color:#26BDF7"/>
		<stop  offset="0.6264" style="stop-color:#51AFF1"/>
		<stop  offset="0.7704" style="stop-color:#3A96ED"/>
	</linearGradient>
	<path class="st1" d="M63.5,15c2.9-4.8,6.8-9,11.9-12h-35h-9.5h-6.4L2.5,61.3h15.9l0,0h48c-4-2.8-6.7-6.9-8.2-12H23l4.5-11.9h21.8
		c0.2-3.9,0.8-7.9,2-12H31.9L35.8,15L63.5,15z"/>
</g>
</svg>
