<?xml version="1.0" standalone="no"?>
<!DOCTYPE svg PUBLIC "-//W3C//DTD SVG 20010904//EN"
 "http://www.w3.org/TR/2001/REC-SVG-20010904/DTD/svg10.dtd">
<svg version="1.0" xmlns="http://www.w3.org/2000/svg"
 width="952.000000pt" height="952.000000pt" viewBox="0 0 952.000000 952.000000"
 preserveAspectRatio="xMidYMid meet">
<metadata>
Created by potrace 1.14, written by Peter Selinger 2001-2017
</metadata>
<g transform="translate(0.000000,952.000000) scale(0.100000,-0.100000)"
fill="#000000" stroke="none">
<path d="M7145 7162 c-2 -2 -23 -6 -47 -8 -74 -6 -149 -17 -213 -31 -16 -3
-39 -7 -50 -9 -27 -4 -48 -9 -125 -29 -36 -9 -73 -19 -83 -20 -9 -2 -22 -7
-27 -10 -5 -3 -18 -8 -27 -10 -41 -10 -224 -80 -277 -108 -43 -21 -52 -26
-111 -57 -72 -38 -189 -112 -193 -122 -2 -5 -8 -8 -13 -8 -10 0 -145 -101
-199 -150 -78 -69 -158 -150 -215 -214 -33 -38 -69 -79 -80 -92 -11 -12 -38
-48 -60 -79 -22 -31 -50 -68 -62 -83 -13 -15 -23 -31 -23 -35 0 -10 -42 -71
-52 -75 -5 -2 -8 -8 -8 -13 0 -5 -11 -27 -25 -49 -54 -85 -195 -379 -195 -405
0 -8 -5 -15 -10 -15 -6 0 -9 -3 -9 -7 1 -5 0 -11 -1 -15 -1 -5 -3 -11 -4 -15
-1 -5 -12 -35 -25 -68 -28 -73 -88 -276 -108 -365 -8 -36 -16 -73 -19 -82 -10
-42 -14 -66 -20 -108 -3 -25 -8 -48 -10 -51 -2 -4 -6 -27 -9 -50 -3 -24 -10
-78 -15 -119 -15 -106 -24 -273 -23 -425 0 -124 10 -303 18 -328 2 -7 6 -36
10 -66 7 -71 32 -189 57 -276 36 -129 40 -140 50 -152 6 -7 8 -13 5 -13 -11 0
78 -194 102 -224 9 -10 15 -21 14 -25 -3 -7 86 -146 113 -178 11 -11 33 -38
51 -60 99 -120 257 -251 393 -324 25 -13 48 -28 51 -32 3 -5 12 -10 20 -11 8
-2 39 -15 70 -29 51 -23 215 -84 249 -92 247 -60 406 -79 655 -79 220 0 413
14 535 39 14 3 39 8 55 10 17 3 37 8 45 10 8 2 29 7 45 9 56 10 250 68 325 98
200 80 380 183 535 307 80 64 237 219 281 277 16 21 37 48 47 59 10 11 26 32
35 48 9 15 20 27 24 27 4 0 8 4 8 10 0 5 20 40 45 78 62 96 154 279 197 392
75 195 96 260 88 265 -6 4 -484 6 -1140 5 l-165 0 -19 -48 c-105 -264 -252
-455 -426 -555 -126 -72 -349 -110 -490 -84 -25 4 -58 10 -75 12 -43 6 -164
68 -209 106 -106 91 -194 263 -220 429 -3 19 -8 46 -11 60 -22 107 -22 554 0
630 2 8 7 47 11 85 3 39 8 72 9 75 2 3 6 26 10 50 3 25 8 52 10 60 2 8 7 31
10 50 8 50 52 222 77 305 26 83 23 73 33 110 4 17 13 39 18 50 6 11 12 29 14
39 2 11 7 24 12 30 5 6 12 22 16 36 4 14 25 62 46 108 22 46 39 87 39 93 0 5
4 9 8 9 5 0 16 17 26 37 43 89 166 256 245 331 107 101 207 164 321 201 200
65 450 38 609 -65 109 -71 197 -214 217 -352 3 -21 7 -43 10 -51 2 -7 7 -52
10 -100 3 -47 7 -87 9 -89 4 -5 1287 -3 1292 2 5 5 5 113 -1 176 -23 272 -88
482 -224 725 -9 17 -19 32 -22 35 -3 3 -25 32 -49 65 -87 119 -256 271 -380
343 -26 14 -48 29 -51 32 -10 11 -92 50 -106 50 -8 0 -14 5 -14 10 0 6 -8 10
-18 10 -10 0 -22 4 -27 9 -25 23 -298 105 -422 127 -13 2 -35 6 -50 9 -16 3
-50 8 -78 10 -27 3 -81 9 -120 14 -66 9 -511 11 -520 3z"/>
<path d="M1966 7081 c-3 -4 -19 -46 -36 -92 -17 -46 -33 -91 -37 -99 -3 -8
-14 -35 -23 -60 -9 -25 -86 -227 -170 -450 -84 -223 -159 -421 -166 -440 -7
-19 -40 -107 -73 -194 -34 -87 -61 -165 -61 -172 0 -8 -4 -14 -8 -14 -5 0 -9
-6 -9 -12 0 -7 -24 -74 -53 -148 -28 -74 -63 -166 -77 -205 -13 -38 -30 -83
-37 -100 -7 -16 -23 -59 -36 -95 -13 -36 -26 -69 -30 -75 -4 -5 -10 -22 -13
-36 -4 -14 -14 -43 -23 -65 -10 -21 -19 -43 -20 -49 -1 -5 -55 -147 -119 -315
-64 -168 -117 -309 -119 -315 -2 -5 -6 -19 -10 -30 -13 -33 -65 -168 -77 -200
-7 -16 -13 -34 -15 -40 -1 -5 -14 -41 -29 -80 -74 -196 -89 -235 -110 -290
-12 -33 -27 -73 -34 -90 -6 -16 -16 -41 -21 -55 -5 -14 -15 -38 -21 -55 -7
-16 -13 -34 -15 -40 -3 -14 -53 -145 -63 -170 -5 -11 -26 -65 -46 -120 -20
-55 -43 -116 -52 -135 -8 -19 -16 -42 -18 -50 -3 -13 -19 -58 -90 -240 -7 -19
-20 -54 -29 -78 l-16 -42 2550 0 c1403 0 2550 1 2550 3 0 1 -24 20 -54 42 -60
43 -225 207 -272 270 -75 99 -130 185 -177 279 -28 56 -52 103 -53 106 0 3 -6
19 -14 35 -7 17 -27 73 -46 125 l-33 95 -1406 3 -1406 2 7 23 c4 12 11 33 17
47 6 14 10 28 9 33 -1 4 3 7 8 7 6 0 10 5 10 12 0 10 63 189 90 253 38 94 50
125 50 134 0 6 9 31 21 55 11 25 22 51 23 58 2 7 9 27 15 43 23 54 62 159 84
222 l21 63 870 0 c478 0 871 2 874 5 2 2 6 32 7 67 4 71 13 180 19 218 2 14 7
52 11 85 4 33 9 69 11 80 3 11 7 36 10 55 6 47 9 59 34 170 12 52 23 106 26
120 3 14 14 55 24 92 l19 68 -774 2 -774 3 80 210 c44 116 82 217 84 225 2 8
25 69 50 135 26 66 51 134 56 150 6 17 14 39 19 50 4 11 11 28 14 38 5 16 67
17 1114 17 l1108 0 34 57 c41 67 177 257 211 294 13 14 36 41 50 60 23 30 221
231 265 268 31 27 131 106 159 126 15 11 32 25 39 30 6 6 51 36 100 68 l89 57
-2031 0 c-1130 0 -2033 -4 -2036 -9z"/>
</g>
</svg>
