<?xml version="1.0" encoding="utf-8"?>
<!-- Generator: Adobe Illustrator 28.3.0, SVG Export Plug-In . SVG Version: 6.00 Build 0)  -->
<svg version="1.1" id="Layer_1" xmlns="http://www.w3.org/2000/svg" xmlns:xlink="http://www.w3.org/1999/xlink" x="0px" y="0px"
	 viewBox="0 0 474.96 111.06" style="enable-background:new 0 0 474.96 111.06;" xml:space="preserve">
<g>
	<g>
		<path d="M145.6,94.69c-1.72,0-3.39-0.4-4.99-1.2c-1.61-0.8-2.81-1.83-3.62-3.09l2.77-5.47c0.25,0.95,0.7,1.83,1.35,2.63
			c0.65,0.8,1.41,1.43,2.27,1.9c0.86,0.47,1.74,0.7,2.63,0.7c0.81,0,1.54-0.18,2.19-0.53c0.65-0.35,1.18-0.82,1.57-1.42
			c0.39-0.59,0.59-1.25,0.59-1.97c0-0.64-0.18-1.24-0.54-1.8c-0.36-0.56-0.92-1.13-1.66-1.71l-2.83-2.24
			c-1.39-1.1-2.38-2.12-2.97-3.06s-0.89-2.03-0.89-3.25c0-1.58,0.4-3,1.21-4.28c0.81-1.28,1.9-2.29,3.28-3.05
			c1.38-0.76,2.91-1.14,4.59-1.14c1.51,0,2.99,0.31,4.43,0.92c1.44,0.61,2.64,1.44,3.59,2.47l-2.71,5.38
			c-0.58-1.29-1.41-2.32-2.47-3.11c-1.07-0.79-2.18-1.18-3.34-1.18c-1,0-1.85,0.32-2.55,0.95c-0.71,0.63-1.06,1.42-1.06,2.35
			c0,0.54,0.16,1.04,0.48,1.49c0.32,0.46,0.84,0.96,1.57,1.52l2.86,2.18c1.39,1.02,2.4,2.06,3.03,3.13
			c0.63,1.07,0.95,2.27,0.95,3.59c0,1.68-0.44,3.23-1.32,4.65c-0.88,1.42-2.06,2.55-3.53,3.39
			C149.01,94.27,147.38,94.69,145.6,94.69z"/>
		<path d="M167.22,94.75c-1.62,0-3.1-0.38-4.45-1.13c-1.35-0.76-2.42-1.8-3.22-3.13c-0.8-1.33-1.2-2.83-1.2-4.51
			c0-1.43,0.3-2.81,0.89-4.14c0.59-1.33,1.42-2.5,2.47-3.53c1.06-1.03,2.26-1.84,3.59-2.44s2.74-0.9,4.21-0.9
			c1.68,0,3.19,0.38,4.53,1.15s2.4,1.81,3.17,3.13c0.78,1.32,1.17,2.79,1.17,4.43c0,1.45-0.31,2.84-0.92,4.17s-1.44,2.51-2.47,3.55
			c-1.04,1.04-2.23,1.86-3.58,2.46C170.07,94.45,168.67,94.75,167.22,94.75z M167.71,90.34c1.08,0,2.06-0.29,2.96-0.87
			c0.89-0.58,1.61-1.34,2.16-2.29c0.55-0.94,0.82-1.94,0.82-3c0-1.33-0.43-2.46-1.29-3.39c-0.86-0.93-1.99-1.4-3.38-1.4
			c-1.06,0-2.04,0.29-2.94,0.87c-0.9,0.58-1.63,1.34-2.18,2.27c-0.55,0.93-0.82,1.94-0.82,3.02c0,1.33,0.44,2.46,1.31,3.39
			S166.35,90.34,167.71,90.34z"/>
		<path d="M181.77,94.19l3.67-14.74h-3.67l1-3.92h3.73l1.37-5.44c0.52-2.09,1.43-3.64,2.74-4.63c1.31-1,2.77-1.49,4.39-1.49
			c0.73,0,1.5,0.11,2.33,0.33c0.83,0.22,1.53,0.59,2.12,1.1l-1.96,3.92c-0.27-0.5-0.6-0.87-1-1.12c-0.39-0.25-0.85-0.37-1.37-0.37
			s-1.02,0.19-1.51,0.58c-0.49,0.38-0.87,1.11-1.14,2.19l-1.24,4.95h3.92l-0.96,3.92h-3.83l-3.7,14.74H181.77z"/>
		<path d="M195.77,94.19l3.67-14.74h-3.67l1-3.92h3.73l1.56-6.22h4.7l-1.52,6.22h3.92l-0.96,3.92h-3.83l-3.7,14.74H195.77z"/>
		<path d="M214.72,95.13l-4.51-19.6h4.95l1.49,6.53c0.14,0.58,0.28,1.19,0.4,1.83c0.12,0.64,0.23,1.39,0.31,2.24
			c0.5-0.83,0.97-1.54,1.42-2.13c0.45-0.59,0.88-1.18,1.29-1.76l5.41-7.4l1.83,7.4c0.12,0.54,0.26,1.11,0.41,1.71
			c0.14,0.6,0.26,1.33,0.34,2.18c0.5-0.91,0.96-1.67,1.38-2.29c0.42-0.61,0.86-1.21,1.29-1.79l4.7-6.53h5.38l-14.15,19.6l-2.27-7.47
			c-0.19-0.6-0.36-1.2-0.51-1.8s-0.3-1.26-0.42-1.99c-0.46,0.73-0.91,1.39-1.37,1.99s-0.92,1.2-1.4,1.8L214.72,95.13z"/>
		<path d="M247.87,94.57c-1.47,0-2.81-0.37-4-1.1c-1.19-0.74-2.14-1.74-2.83-3.02c-0.7-1.28-1.04-2.7-1.04-4.28
			c0-1.47,0.3-2.87,0.89-4.18c0.59-1.32,1.39-2.49,2.41-3.53s2.18-1.85,3.48-2.43c1.31-0.58,2.65-0.87,4.04-0.87
			c1.26,0,2.44,0.23,3.51,0.7c1.08,0.47,1.99,1.12,2.74,1.98l0.56-2.3h4.29l-4.67,18.66h-4.26l0.47-1.8
			c-0.77,0.64-1.62,1.17-2.57,1.57S248.95,94.57,247.87,94.57z M249.21,90.24c1.06,0,2.04-0.29,2.94-0.86
			c0.9-0.57,1.62-1.32,2.16-2.24c0.54-0.92,0.81-1.91,0.81-2.97c0-0.87-0.19-1.66-0.58-2.36s-0.92-1.27-1.62-1.7
			c-0.7-0.42-1.5-0.64-2.41-0.64c-1.06,0-2.03,0.29-2.92,0.86s-1.61,1.32-2.16,2.24c-0.55,0.92-0.82,1.91-0.82,2.97
			c0,0.85,0.2,1.63,0.59,2.35s0.94,1.29,1.63,1.71C247.53,90.03,248.32,90.24,249.21,90.24z"/>
		<path d="M261.87,94.19l4.67-18.66h4.39l-0.75,3.02c0.93-1.02,1.97-1.8,3.13-2.36c1.15-0.56,2.39-0.84,3.72-0.84v4.42
			c-0.37-0.12-0.82-0.19-1.34-0.19c-1.56,0-2.95,0.54-4.18,1.62c-1.23,1.08-2.12,2.72-2.66,4.91l-2.08,8.09H261.87z"/>
		<path d="M286.69,94.75c-1.76,0-3.35-0.38-4.76-1.15c-1.41-0.77-2.52-1.81-3.33-3.14s-1.21-2.82-1.21-4.48c0-1.47,0.3-2.87,0.9-4.2
			c0.6-1.33,1.44-2.5,2.52-3.53c1.08-1.03,2.32-1.83,3.72-2.41c1.4-0.58,2.88-0.87,4.43-0.87c1.95,0,3.58,0.44,4.88,1.31
			s2.22,2.04,2.75,3.51c0.53,1.47,0.56,3.12,0.11,4.95l-0.4,1.56h-11.6c-0.42,0-0.83-0.02-1.26-0.06c-0.42-0.04-0.87-0.1-1.32-0.19
			c0.15,1.39,0.67,2.5,1.59,3.33c0.91,0.83,2.06,1.24,3.45,1.24c1.14,0,2.26-0.3,3.36-0.89c1.1-0.59,1.92-1.31,2.46-2.16v5.13
			c-0.81,0.62-1.76,1.12-2.85,1.49C289.04,94.57,287.9,94.75,286.69,94.75z M282.18,83.03c1.24-0.25,2.38-0.37,3.42-0.37h4.04
			c0.52,0,1.02,0.02,1.49,0.06c0.48,0.04,0.94,0.1,1.4,0.19c-0.04-1.2-0.45-2.16-1.23-2.88c-0.78-0.71-1.83-1.07-3.16-1.07
			c-1.37,0-2.59,0.38-3.67,1.14S282.64,81.82,282.18,83.03z"/>
		<path d="M307.97,94.19l7-28h14.62l-1.09,4.42h-9.71l-1.18,4.73h7.53l-1.03,4.29h-7.56l-2.52,9.99h9.71l-1.15,4.57H307.97z"/>
		<path d="M326.63,94.19l4.67-18.66h4.39l-0.5,2.15c0.83-0.91,1.76-1.59,2.8-2.04c1.04-0.45,2.09-0.67,3.17-0.67
			c1.68,0,3.01,0.42,4,1.26s1.63,1.92,1.94,3.24c0.31,1.32,0.27,2.72-0.12,4.21l-2.64,10.51h-4.88l2.64-10.45
			c0.31-1.26,0.22-2.37-0.26-3.31c-0.49-0.94-1.39-1.42-2.72-1.42c-1.02,0-1.98,0.36-2.89,1.07c-0.91,0.72-1.56,1.8-1.93,3.25
			l-2.77,10.86H326.63z"/>
		<path d="M355.62,103.99c-0.87,0-1.82-0.1-2.83-0.31c-1.02-0.21-2.01-0.56-2.97-1.06c-0.96-0.5-1.82-1.15-2.57-1.96l2.4-4.73
			c0.58,1.22,1.45,2.17,2.61,2.83c1.16,0.66,2.42,1,3.76,1c1.68,0,3.12-0.49,4.31-1.48c1.19-0.99,2-2.29,2.41-3.9l0.53-1.96
			c-0.75,0.64-1.59,1.16-2.52,1.56c-0.93,0.39-1.94,0.59-3.02,0.59c-1.47,0-2.81-0.37-4-1.1c-1.19-0.74-2.14-1.74-2.83-3.02
			c-0.7-1.28-1.04-2.7-1.04-4.28c0-1.47,0.3-2.87,0.89-4.18c0.59-1.32,1.39-2.49,2.41-3.53s2.18-1.85,3.48-2.43
			c1.31-0.58,2.65-0.87,4.04-0.87c1.26,0,2.44,0.23,3.51,0.7c1.08,0.47,1.99,1.12,2.74,1.98l0.56-2.3h4.29l-4.98,20
			c-0.46,1.82-1.25,3.36-2.39,4.62c-1.14,1.25-2.47,2.21-4,2.86S357.3,103.99,355.62,103.99z M359.08,90.24
			c1.06,0,2.04-0.29,2.94-0.86c0.9-0.57,1.62-1.32,2.16-2.24c0.54-0.92,0.81-1.91,0.81-2.97c0-0.87-0.19-1.66-0.58-2.36
			s-0.92-1.27-1.62-1.7c-0.7-0.42-1.5-0.64-2.41-0.64c-1.06,0-2.03,0.29-2.92,0.86s-1.61,1.32-2.16,2.24
			c-0.55,0.92-0.82,1.91-0.82,2.97c0,0.85,0.2,1.63,0.59,2.35s0.94,1.29,1.63,1.71C357.39,90.03,358.18,90.24,359.08,90.24z"/>
		<path d="M371.77,94.19l4.67-18.66h4.88l-4.67,18.66H371.77z M379.98,72.67c-0.66,0-1.23-0.23-1.71-0.68
			c-0.48-0.46-0.71-1.04-0.71-1.74c0-0.81,0.31-1.52,0.93-2.13s1.33-0.92,2.12-0.92c0.68,0,1.26,0.23,1.73,0.68s0.7,1.03,0.7,1.71
			c0,0.81-0.31,1.52-0.93,2.15S380.77,72.67,379.98,72.67z"/>
		<path d="M381.28,94.19l4.67-18.66h4.39l-0.5,2.15c0.83-0.91,1.76-1.59,2.8-2.04c1.04-0.45,2.09-0.67,3.17-0.67
			c1.68,0,3.01,0.42,4,1.26s1.63,1.92,1.94,3.24c0.31,1.32,0.27,2.72-0.12,4.21l-2.64,10.51h-4.88l2.64-10.45
			c0.31-1.26,0.22-2.37-0.26-3.31c-0.49-0.94-1.39-1.42-2.72-1.42c-1.02,0-1.98,0.36-2.89,1.07c-0.91,0.72-1.56,1.8-1.93,3.25
			l-2.77,10.86H381.28z"/>
		<path d="M413.82,94.75c-1.76,0-3.35-0.38-4.76-1.15c-1.41-0.77-2.52-1.81-3.33-3.14s-1.21-2.82-1.21-4.48c0-1.47,0.3-2.87,0.9-4.2
			c0.6-1.33,1.44-2.5,2.52-3.53c1.08-1.03,2.32-1.83,3.72-2.41c1.4-0.58,2.88-0.87,4.43-0.87c1.95,0,3.58,0.44,4.88,1.31
			s2.22,2.04,2.75,3.51c0.53,1.47,0.56,3.12,0.11,4.95l-0.4,1.56h-11.6c-0.42,0-0.83-0.02-1.26-0.06c-0.42-0.04-0.87-0.1-1.32-0.19
			c0.15,1.39,0.67,2.5,1.59,3.33c0.91,0.83,2.06,1.24,3.45,1.24c1.14,0,2.26-0.3,3.36-0.89c1.1-0.59,1.92-1.31,2.46-2.16v5.13
			c-0.81,0.62-1.76,1.12-2.85,1.49C416.17,94.57,415.02,94.75,413.82,94.75z M409.31,83.03c1.24-0.25,2.38-0.37,3.42-0.37h4.04
			c0.52,0,1.02,0.02,1.49,0.06c0.48,0.04,0.94,0.1,1.4,0.19c-0.04-1.2-0.45-2.16-1.23-2.88c-0.78-0.71-1.83-1.07-3.16-1.07
			c-1.37,0-2.59,0.38-3.67,1.14S409.77,81.82,409.31,83.03z"/>
		<path d="M435.44,94.75c-1.76,0-3.35-0.38-4.76-1.15c-1.41-0.77-2.52-1.81-3.33-3.14s-1.21-2.82-1.21-4.48c0-1.47,0.3-2.87,0.9-4.2
			c0.6-1.33,1.44-2.5,2.52-3.53c1.08-1.03,2.32-1.83,3.72-2.41c1.4-0.58,2.88-0.87,4.43-0.87c1.95,0,3.58,0.44,4.88,1.31
			s2.22,2.04,2.75,3.51c0.53,1.47,0.56,3.12,0.11,4.95l-0.4,1.56h-11.6c-0.42,0-0.83-0.02-1.26-0.06c-0.42-0.04-0.87-0.1-1.32-0.19
			c0.15,1.39,0.67,2.5,1.59,3.33c0.91,0.83,2.06,1.24,3.45,1.24c1.14,0,2.26-0.3,3.36-0.89c1.1-0.59,1.92-1.31,2.46-2.16v5.13
			c-0.81,0.62-1.76,1.12-2.85,1.49C437.79,94.57,436.64,94.75,435.44,94.75z M430.93,83.03c1.24-0.25,2.38-0.37,3.42-0.37h4.04
			c0.52,0,1.02,0.02,1.49,0.06c0.48,0.04,0.94,0.1,1.4,0.19c-0.04-1.2-0.45-2.16-1.23-2.88c-0.78-0.71-1.83-1.07-3.16-1.07
			c-1.37,0-2.59,0.38-3.67,1.14S431.38,81.82,430.93,83.03z"/>
		<path d="M446.45,94.19l4.67-18.66h4.39l-0.75,3.02c0.93-1.02,1.97-1.8,3.13-2.36c1.15-0.56,2.39-0.84,3.72-0.84v4.42
			c-0.37-0.12-0.82-0.19-1.34-0.19c-1.56,0-2.95,0.54-4.18,1.62c-1.23,1.08-2.12,2.72-2.66,4.91l-2.08,8.09H446.45z"/>
	</g>
</g>
<g>
	<g>
		<path d="M19.04,56.94V14.95h22.4v7.28H27.16v6.44h11.01v7H27.16v13.72h14.28v7.56H19.04z"/>
		<path d="M47.04,56.94V28.94h7.28v3.08c1-1.31,2.23-2.3,3.71-2.99c1.48-0.68,3.02-1.03,4.64-1.03c1.65,0,3.2,0.34,4.67,1.03
			c1.46,0.68,2.69,1.68,3.69,2.99c1.09-1.31,2.44-2.3,4.06-2.99c1.62-0.68,3.38-1.03,5.27-1.03c1.99,0,3.86,0.46,5.6,1.38
			c1.74,0.92,3.16,2.26,4.25,4.01c1.09,1.76,1.63,3.9,1.63,6.41v17.12h-8.12V40.98c0-1.49-0.44-2.81-1.31-3.97
			c-0.87-1.15-2.13-1.73-3.78-1.73c-0.87,0-1.7,0.21-2.5,0.63c-0.79,0.42-1.43,1.04-1.91,1.87c-0.48,0.83-0.72,1.86-0.72,3.1v16.05
			h-8.12V40.98c0-1-0.19-1.93-0.58-2.8c-0.39-0.87-0.96-1.57-1.73-2.1c-0.76-0.53-1.69-0.79-2.78-0.79c-0.87,0-1.7,0.21-2.5,0.63
			c-0.79,0.42-1.43,1.04-1.91,1.87c-0.48,0.83-0.72,1.86-0.72,3.1v16.05H47.04z"/>
		<path d="M97.43,56.94V28.94h7.28v4.81c0.96-1.62,2.18-2.87,3.66-3.76c1.48-0.89,3.21-1.33,5.2-1.33l1.77,7.19
			c-0.59-0.19-1.26-0.28-2.01-0.28c-2.33,0-4.22,0.75-5.65,2.26c-1.43,1.51-2.15,3.66-2.15,6.46v12.64H97.43z"/>
		<path d="M118.19,70.94l9.33-18.76l-11.43-23.24h8.96L130,39.21c0.44,0.93,0.82,1.78,1.14,2.54c0.33,0.76,0.6,1.5,0.82,2.22
			c0.25-0.72,0.54-1.45,0.89-2.22c0.34-0.76,0.75-1.61,1.21-2.54l5.04-10.26h8.63l-20.81,41.99H118.19z"/>
		<path d="M160.28,57.87c-1.9,0-3.82-0.31-5.76-0.93c-1.94-0.62-3.46-1.46-4.55-2.52l2.01-7.65c0.9,1.25,2.15,2.33,3.76,3.27
			c1.6,0.93,3.26,1.4,4.97,1.4c1.15,0,1.98-0.22,2.5-0.65c0.51-0.43,0.77-0.96,0.77-1.59c0-0.72-0.26-1.24-0.79-1.56
			c-0.53-0.33-1.07-0.6-1.63-0.82l-3.92-1.49c-0.87-0.34-1.87-0.81-2.99-1.4s-2.09-1.43-2.92-2.52c-0.82-1.09-1.24-2.52-1.24-4.29
			c0-1.62,0.4-3.11,1.21-4.48c0.81-1.37,1.98-2.48,3.52-3.34c1.54-0.86,3.4-1.28,5.58-1.28c2.02,0,3.91,0.34,5.67,1.03
			c1.76,0.68,3.04,1.45,3.85,2.29l-1.87,7.37c-1.06-1.37-2.31-2.42-3.76-3.15c-1.45-0.73-2.82-1.1-4.13-1.1c-1,0-1.73,0.2-2.19,0.61
			c-0.47,0.4-0.7,0.87-0.7,1.4c0,0.4,0.16,0.8,0.49,1.19c0.33,0.39,0.88,0.74,1.66,1.05l3.64,1.35c1.06,0.37,2.19,0.87,3.38,1.49
			c1.2,0.62,2.22,1.49,3.06,2.59c0.84,1.1,1.26,2.62,1.26,4.55c0,2.71-1,4.92-3.01,6.63C166.13,57.02,163.51,57.87,160.28,57.87z"/>
		<path d="M211.46,57.78c-3.08,0-5.96-0.57-8.63-1.7c-2.68-1.13-5.03-2.7-7.07-4.69c-2.04-1.99-3.63-4.31-4.78-6.95
			c-1.15-2.64-1.73-5.47-1.73-8.49c0-3.02,0.58-5.85,1.73-8.49c1.15-2.64,2.75-4.96,4.78-6.95c2.04-1.99,4.39-3.55,7.07-4.69
			c2.67-1.14,5.55-1.7,8.63-1.7c2.77,0,5.38,0.45,7.84,1.35c2.46,0.9,4.65,2.18,6.58,3.83l-2.38,9.8c-1.15-1.93-2.74-3.55-4.76-4.88
			c-2.02-1.32-4.36-1.98-7-1.98c-2.52,0-4.8,0.61-6.83,1.84c-2.04,1.23-3.65,2.88-4.83,4.95c-1.18,2.07-1.77,4.38-1.77,6.93
			c0,2.52,0.59,4.82,1.77,6.91c1.18,2.08,2.79,3.74,4.83,4.97c2.04,1.23,4.32,1.84,6.83,1.84c2.61,0,4.94-0.66,6.98-1.98
			c2.04-1.32,3.63-2.95,4.78-4.88l2.38,9.8c-1.96,1.62-4.16,2.88-6.6,3.8C216.83,57.32,214.23,57.78,211.46,57.78z"/>
		<path d="M244.12,57.87c-2.77,0-5.3-0.67-7.61-2.01s-4.13-3.14-5.48-5.41c-1.35-2.27-2.03-4.77-2.03-7.51
			c0-2.77,0.68-5.28,2.03-7.53c1.35-2.26,3.18-4.05,5.48-5.39s4.84-2.01,7.61-2.01c2.8,0,5.34,0.67,7.63,2.01s4.11,3.13,5.46,5.39
			c1.35,2.25,2.03,4.77,2.03,7.53c0,2.74-0.68,5.24-2.03,7.51c-1.35,2.27-3.17,4.08-5.46,5.41S246.92,57.87,244.12,57.87z
			 M244.12,50.59c1.4,0,2.67-0.34,3.8-1.03c1.14-0.68,2.04-1.61,2.71-2.78c0.67-1.17,1-2.45,1-3.85c0-1.43-0.33-2.72-1-3.87
			c-0.67-1.15-1.57-2.07-2.71-2.75c-1.14-0.68-2.4-1.03-3.8-1.03c-1.4,0-2.67,0.34-3.8,1.03c-1.14,0.68-2.04,1.6-2.71,2.75
			c-0.67,1.15-1,2.44-1,3.87c0,1.4,0.33,2.68,1,3.85c0.67,1.17,1.57,2.09,2.71,2.78C241.45,50.25,242.72,50.59,244.12,50.59z"/>
		<path d="M264,56.94V28.94h7.28v4.81c0.96-1.62,2.18-2.87,3.66-3.76c1.48-0.89,3.21-1.33,5.2-1.33l1.77,7.19
			c-0.59-0.19-1.26-0.28-2.01-0.28c-2.33,0-4.22,0.75-5.65,2.26c-1.43,1.51-2.15,3.66-2.15,6.46v12.64H264z"/>
		<path d="M301.19,57.69c-1.77,0-3.4-0.31-4.88-0.93c-1.48-0.62-2.76-1.48-3.85-2.57v2.75h-7V12.15h8.12v18.57
			c1.03-0.81,2.18-1.43,3.45-1.87c1.28-0.44,2.66-0.65,4.15-0.65c2.61,0,4.98,0.66,7.09,1.98c2.12,1.32,3.8,3.1,5.06,5.34
			s1.89,4.71,1.89,7.42c0,2.71-0.63,5.17-1.89,7.4c-1.26,2.22-2.95,4.01-5.06,5.34S303.8,57.69,301.19,57.69z M300.25,50.55
			c1.37,0,2.61-0.34,3.73-1.03c1.12-0.68,2.01-1.6,2.68-2.75c0.67-1.15,1-2.43,1-3.83c0-1.4-0.33-2.67-1-3.83
			c-0.67-1.15-1.56-2.07-2.68-2.75c-1.12-0.68-2.36-1.03-3.73-1.03c-1.37,0-2.61,0.34-3.73,1.03c-1.12,0.68-2.01,1.6-2.68,2.75
			c-0.67,1.15-1,2.43-1,3.83c0,1.4,0.33,2.68,1,3.83c0.67,1.15,1.56,2.07,2.68,2.75C297.64,50.2,298.88,50.55,300.25,50.55z"/>
		<path d="M324.14,24.88c-1.21,0-2.24-0.42-3.08-1.26s-1.26-1.87-1.26-3.08c0-1.24,0.42-2.28,1.26-3.1
			c0.84-0.82,1.87-1.24,3.08-1.24c1.24,0,2.28,0.41,3.1,1.24c0.82,0.82,1.24,1.86,1.24,3.1c0,1.21-0.41,2.24-1.24,3.08
			S325.38,24.88,324.14,24.88z M320.08,56.94V28.94h8.12v27.99H320.08z"/>
		<path d="M334.45,56.94V28.94h7.28v3.08c1-1.31,2.22-2.3,3.69-2.99c1.46-0.68,3.03-1.03,4.71-1.03c1.99,0,3.85,0.47,5.58,1.42
			c1.73,0.95,3.13,2.33,4.2,4.15c1.07,1.82,1.61,4.02,1.61,6.6v16.75h-8.12V41.26c0-1.55-0.47-2.94-1.4-4.15
			c-0.93-1.21-2.27-1.82-4.01-1.82c-1.4,0-2.65,0.47-3.76,1.42c-1.1,0.95-1.66,2.43-1.66,4.46v15.77H334.45z"/>
	</g>
</g>
</svg>
