<?xml version="1.0" encoding="utf-8"?>
<!-- Generator: Adobe Illustrator 27.9.0, SVG Export Plug-In . SVG Version: 6.00 Build 0)  -->
<svg version="1.1" id="Layer_1" xmlns="http://www.w3.org/2000/svg" xmlns:xlink="http://www.w3.org/1999/xlink" x="0px" y="0px"
	 viewBox="0 0 157.11 64" style="enable-background:new 0 0 157.11 64;" xml:space="preserve">
<style type="text/css">
	.st0{opacity:0.9;fill:#231F20;enable-background:new    ;}
	.st1{opacity:0.8;fill:#231F20;enable-background:new    ;}
	.st2{opacity:0.7;fill:#231F20;enable-background:new    ;}
	.st3{opacity:0.6;fill:#231F20;enable-background:new    ;}
	.st4{opacity:0.5;fill:#231F20;enable-background:new    ;}
	.st5{opacity:0.4;fill:#231F20;enable-background:new    ;}
	.st6{opacity:0.3;fill:#231F20;enable-background:new    ;}
	.st7{opacity:0.2;fill:#231F20;enable-background:new    ;}
	.st8{opacity:0.1;fill:#231F20;enable-background:new    ;}
</style>
<polygon class="st0" points="1.09,64 25.05,0 37.68,0 13.72,64 "/>
<polygon class="st1" points="15.39,64 39.35,0 51.99,0 28.02,64 "/>
<polygon class="st2" points="29.69,64 53.66,0 66.29,0 42.32,64 "/>
<polygon class="st3" points="44,64 67.96,0 80.59,0 56.63,64 "/>
<polygon class="st4" points="58.3,64 82.26,0 94.9,0 70.93,64 "/>
<polygon class="st5" points="72.6,64 96.57,0 109.2,0 85.23,64 "/>
<polygon class="st6" points="86.91,64 110.87,0 123.5,0 99.54,64 "/>
<polygon class="st7" points="101.21,64 125.17,0 137.81,0 113.84,64 "/>
<polygon class="st8" points="115.51,64 139.48,0 152.11,0 128.14,64 "/>
</svg>
