<?xml version="1.0" encoding="UTF-8"?><svg id="Layer_1" xmlns="http://www.w3.org/2000/svg" viewBox="0 0 193.16 64"><defs><style>.cls-1{opacity:.9;}.cls-1,.cls-2,.cls-3,.cls-4,.cls-5,.cls-6,.cls-7,.cls-8,.cls-9{fill:#231f20;stroke-width:0px;}.cls-2{opacity:.2;}.cls-3{opacity:.1;}.cls-4{opacity:.8;}.cls-5{opacity:.5;}.cls-6{opacity:.4;}.cls-7{opacity:.6;}.cls-8{opacity:.3;}.cls-9{opacity:.7;}</style></defs><polygon class="cls-1" points="156.21 64 193.16 0 177.63 0 140.68 64 156.21 64"/><polygon class="cls-4" points="138.62 64 175.58 0 160.04 0 123.09 64 138.62 64"/><polygon class="cls-9" points="121.04 64 157.99 0 142.46 0 105.51 64 121.04 64"/><polygon class="cls-7" points="103.45 64 140.41 0 124.87 0 87.92 64 103.45 64"/><polygon class="cls-5" points="85.87 64 122.82 0 107.29 0 70.34 64 85.87 64"/><polygon class="cls-6" points="68.29 64 105.24 0 89.71 0 52.75 64 68.29 64"/><polygon class="cls-8" points="50.7 64 87.65 0 72.12 0 35.17 64 50.7 64"/><polygon class="cls-2" points="33.12 64 70.07 0 54.54 0 17.58 64 33.12 64"/><polygon class="cls-3" points="15.53 64 52.48 0 36.95 0 0 64 15.53 64"/></svg>